<?xml version="1.0" standalone="no"?>
<!DOCTYPE svg PUBLIC "-//W3C//DTD SVG 20010904//EN"
 "http://www.w3.org/TR/2001/REC-SVG-20010904/DTD/svg10.dtd">
<svg version="1.0" xmlns="http://www.w3.org/2000/svg"
 width="1872.000000pt" height="1872.000000pt" viewBox="0 0 1872.000000 1872.000000"
 preserveAspectRatio="xMidYMid meet">
<metadata>
Created by potrace 1.14, written by Peter Selinger 2001-2017
</metadata>
<g transform="translate(0.000000,1872.000000) scale(0.100000,-0.100000)"
fill="#000000" stroke="none">
<path d="M9028 18715 c-1 -1 -73 -6 -158 -10 -223 -11 -321 -18 -430 -30 -93
-10 -148 -17 -180 -21 -19 -2 -55 -6 -80 -9 -50 -6 -184 -25 -215 -31 -11 -2
-40 -6 -64 -9 -136 -17 -535 -97 -791 -160 -298 -74 -579 -158 -880 -265 -80
-28 -158 -56 -175 -62 -16 -5 -43 -16 -60 -23 -16 -7 -91 -38 -166 -68 -75
-31 -156 -64 -180 -75 -24 -11 -78 -34 -119 -52 -94 -40 -529 -255 -630 -311
-705 -388 -1270 -792 -1869 -1334 -83 -74 -476 -467 -556 -556 -108 -118 -195
-217 -218 -245 -12 -16 -29 -36 -37 -45 -54 -57 -250 -303 -371 -465 -249
-335 -492 -714 -713 -1114 -74 -132 -302 -602 -351 -720 -15 -36 -35 -83 -45
-105 -10 -22 -28 -65 -40 -95 -12 -30 -28 -68 -35 -85 -12 -28 -34 -88 -113
-300 -33 -89 -161 -476 -165 -503 -2 -9 -13 -48 -25 -87 -21 -68 -81 -293 -87
-327 -2 -9 -15 -63 -29 -120 -13 -57 -27 -116 -31 -133 -6 -33 -6 -32 -34
-165 -10 -52 -22 -115 -26 -140 -4 -24 -8 -47 -10 -50 -2 -4 -6 -28 -10 -54
-3 -27 -7 -51 -9 -55 -2 -3 -7 -35 -11 -71 -4 -36 -8 -67 -10 -70 -2 -3 -7
-33 -10 -65 -4 -33 -9 -69 -11 -80 -2 -11 -7 -45 -10 -75 -3 -30 -7 -66 -10
-80 -2 -14 -6 -54 -9 -90 -4 -36 -8 -75 -10 -86 -2 -12 -6 -61 -10 -110 -4
-49 -9 -105 -10 -124 -26 -265 -26 -1203 0 -1363 2 -12 6 -60 10 -107 3 -47 8
-103 10 -125 3 -22 7 -60 9 -85 8 -79 17 -160 21 -179 2 -10 6 -42 10 -72 3
-30 10 -79 15 -109 8 -49 17 -108 25 -165 4 -24 11 -64 31 -175 9 -47 18 -96
21 -110 26 -148 126 -559 189 -775 25 -88 47 -164 48 -170 2 -5 6 -17 9 -25 3
-8 15 -46 27 -85 92 -292 246 -696 357 -935 19 -41 42 -93 51 -115 18 -46 277
-562 291 -579 5 -6 26 -42 46 -81 21 -38 68 -119 104 -180 36 -60 70 -118 76
-128 105 -183 523 -784 627 -902 10 -11 48 -58 85 -105 38 -47 79 -98 93 -114
14 -16 54 -63 90 -105 68 -80 108 -125 205 -231 72 -79 469 -475 545 -545 115
-104 157 -141 214 -190 33 -27 64 -54 70 -60 6 -5 49 -42 96 -81 73 -60 113
-92 200 -161 8 -7 33 -26 55 -42 22 -17 45 -35 51 -40 174 -144 814 -564 1072
-702 31 -17 73 -40 92 -51 72 -42 480 -247 610 -306 177 -80 411 -176 585
-241 77 -29 147 -55 155 -58 8 -3 20 -7 25 -9 6 -1 78 -26 160 -54 395 -135
893 -261 1322 -335 82 -14 159 -27 172 -30 14 -2 61 -9 105 -15 45 -6 92 -13
106 -15 14 -2 43 -7 65 -9 22 -3 56 -7 75 -10 34 -4 142 -16 205 -22 17 -1 70
-6 119 -9 49 -4 98 -9 109 -11 134 -25 1136 -25 1362 1 17 2 66 6 110 10 44 3
99 8 123 10 97 11 176 20 257 30 22 3 60 7 85 10 25 3 70 10 100 15 30 5 73
12 95 15 112 17 173 27 315 55 85 17 166 33 180 36 65 12 343 78 405 95 59 17
194 54 230 63 235 61 784 256 1075 383 69 30 130 56 135 57 62 17 635 307 850
431 314 181 742 459 890 578 6 4 44 33 85 64 177 132 410 321 530 428 19 18
82 74 140 125 58 52 206 196 330 320 201 200 294 298 426 450 21 25 41 47 44
50 3 3 39 46 80 95 41 50 77 92 80 95 17 15 234 297 336 440 225 311 439 650
623 985 96 175 296 579 354 715 8 19 26 60 39 90 32 72 168 420 209 535 17 50
35 99 39 110 10 23 17 46 72 215 22 69 41 132 43 140 2 8 19 69 38 135 61 206
167 661 201 855 3 19 8 46 11 60 3 14 8 41 10 60 5 31 8 50 20 125 7 39 16
100 20 128 16 116 31 236 40 322 4 33 8 74 10 90 2 17 7 66 10 110 4 44 8 100
10 125 27 318 26 1135 0 1365 -2 17 -6 66 -10 110 -5 76 -10 121 -20 210 -3
22 -7 66 -10 98 -4 32 -8 68 -10 79 -3 12 -7 44 -10 72 -3 28 -10 76 -15 106
-5 30 -12 71 -14 90 -10 74 -38 231 -66 370 -10 52 -21 106 -24 120 -23 122
-114 485 -171 680 -63 220 -234 719 -290 845 -7 17 -36 86 -65 155 -105 253
-269 598 -385 810 -29 52 -67 122 -85 155 -193 351 -538 867 -814 1214 -62 79
-246 302 -256 311 -3 3 -39 43 -80 90 -131 148 -180 200 -390 410 -223 224
-305 302 -420 400 -41 36 -77 67 -80 70 -11 13 -201 170 -270 225 -41 32 -77
62 -80 65 -8 9 -308 231 -400 296 -90 63 -342 231 -375 250 -11 6 -94 56 -185
111 -91 56 -228 135 -305 176 -77 42 -162 88 -190 103 -27 16 -52 29 -55 29
-3 1 -90 43 -193 93 -103 51 -189 92 -192 92 -2 0 -32 13 -67 29 -35 16 -119
53 -188 81 -69 29 -138 58 -155 65 -87 37 -289 111 -505 185 -268 92 -810 238
-1020 276 -14 2 -56 11 -95 19 -102 22 -315 59 -394 71 -37 5 -81 12 -121 19
-14 2 -50 7 -80 11 -30 4 -64 8 -75 9 -11 2 -45 6 -75 9 -30 3 -71 8 -90 11
-19 3 -62 7 -95 10 -33 3 -85 7 -115 10 -30 3 -93 7 -140 10 -47 3 -114 8
-150 11 -72 6 -836 14 -842 9z"/>
</g>
</svg>
